<svg xmlns="http://www.w3.org/2000/svg" viewBox="0 0 400 120" fill="none">
  <!-- Arch icon -->
  <g transform="translate(155, 5)">
    <!-- Outer arch -->
    <path d="M45 65 L45 30 Q45 5 70 5 L20 5 Q45 5 45 30 Z" fill="none" stroke="white" stroke-width="1.5"/>
    <path d="M45 5 Q15 5 15 35 L15 65" fill="none" stroke="white" stroke-width="1.5"/>
    <path d="M45 5 Q75 5 75 35 L75 65" fill="none" stroke="white" stroke-width="1.5"/>
    <!-- Inner arch -->
    <path d="M45 15 Q28 15 28 38 L28 65" fill="none" stroke="white" stroke-width="1.2"/>
    <path d="M45 15 Q62 15 62 38 L62 65" fill="none" stroke="white" stroke-width="1.2"/>
    <!-- A crossbar -->
    <line x1="28" y1="48" x2="62" y2="48" stroke="white" stroke-width="1.2"/>
    <!-- Base line -->
    <line x1="10" y1="65" x2="80" y2="65" stroke="white" stroke-width="1.5"/>
  </g>
  <!-- AURELIUS text -->
  <text x="200" y="95" text-anchor="middle" font-family="'Didot', 'Playfair Display', 'Georgia', serif" font-size="32" font-weight="400" letter-spacing="12" fill="white">AURELIUS</text>
  <!-- AUCTIONS text -->
  <text x="200" y="113" text-anchor="middle" font-family="'Didot', 'Playfair Display', 'Georgia', serif" font-size="12" font-weight="300" letter-spacing="8" fill="rgba(255,255,255,0.7)">AUCTIONS</text>
</svg>